# xmcd
#
# Track frame offsets:
#	150
#	12830
#	21972
#	34091
#	48004
#	60138
#	73061
#	89196
#	102126
#	115994
#	125704
#	147476
#	156685
#	178026
#	194102
#	205137
#	219090
#	232657
#	245398
#	258127
#
# Disc length: 3616 seconds
#
# Revision: 2
# Processed by: cddbd v1.5.2PL0 Copyright (c) Steve Scherf et al.
# Submitted via: EZCDAudioConverter 4.0.4.1
#
DISCID=1c0e1e14
DTITLE=Tennessee Ernie Ford
DYEAR=2016
DGENRE=Country
TTITLE0=I Don't Hurt Anymore
TTITLE1=It's All In The Game
TTITLE2=Take Me Back And Try Me One More Time
TTITLE3=She Called Me Baby
TTITLE4=Old Cape Cod
TTITLE5=Sweet Dreams
TTITLE6=Jesus, Keep Me Near The Cross
TTITLE7=Almost Persuaded
TTITLE8=Trouble In Mind
TTITLE9=Tennessee Waltz
TTITLE10=Sixteen Tons
TTITLE11=Bringing In The Sheaves
TTITLE12=Rainy Night In Georgia
TTITLE13=What A Friend We Have In Jesus
TTITLE14=Since You've Been Gone
TTITLE15=Holy, Holy, Holy
TTITLE16=Streamlined Cannon Ball
TTITLE17=Dark As A Dungeon
TTITLE18=Ain't Goin Down In The Ground Before My Time
TTITLE19=The Old Rugged Cross
EXTD=
EXTT0=
EXTT1=
EXTT2=
EXTT3=
EXTT4=
EXTT5=
EXTT6=
EXTT7=
EXTT8=
EXTT9=
EXTT10=
EXTT11=
EXTT12=
EXTT13=
EXTT14=
EXTT15=
EXTT16=
EXTT17=
EXTT18=
EXTT19=
PLAYORDER=
